<svg width="600" height="146" viewBox="0 0 600 146" fill="none" xmlns="http://www.w3.org/2000/svg">
<path fill-rule="evenodd" clip-rule="evenodd" d="M12 68.9551C12 52.4072 24.9196 38.9925 40.8566 38.9925C45.4616 38.9925 51.1351 41.0387 56.2896 43.3222C61.6913 45.7152 67.4768 48.8187 72.6191 51.7067C74.4086 52.7117 76.5603 52.7117 78.3498 51.7067C83.492 48.8187 89.2776 45.7152 94.6793 43.3222C99.8338 41.0387 105.507 38.9925 110.112 38.9925C126.049 38.9925 138.969 52.4072 138.969 68.9551C138.969 85.503 126.049 98.9176 110.112 98.9176C105.507 98.9176 99.8338 96.8714 94.6793 94.5879C89.2776 92.1949 83.492 89.0914 78.3498 86.2034C76.5603 85.1984 74.4086 85.1984 72.6191 86.2034C67.4768 89.0914 61.6913 92.1949 56.2896 94.5879C51.1351 96.8714 45.4616 98.9176 40.8566 98.9176C24.9196 98.9176 12 85.503 12 68.9551ZM40.8566 50.9775C31.2944 50.9775 23.5426 59.0263 23.5426 68.9551C23.5426 78.8838 31.2944 86.9326 40.8566 86.9326C42.8736 86.9326 46.6106 85.8455 51.76 83.5643C56.6622 81.3926 62.074 78.4999 67.1276 75.6617C72.3435 72.7323 78.6254 72.7323 83.8413 75.6617C88.8949 78.4999 94.3067 81.3926 99.2089 83.5643C104.358 85.8455 108.095 86.9326 110.112 86.9326C119.675 86.9326 127.426 78.8838 127.426 68.9551C127.426 59.0263 119.675 50.9775 110.112 50.9775C108.095 50.9775 104.358 52.0646 99.2089 54.3458C94.3067 56.5175 88.8949 59.4102 83.8413 62.2485C78.6254 65.1778 72.3435 65.1778 67.1276 62.2485C62.074 59.4102 56.6622 56.5175 51.76 54.3458C46.6106 52.0646 42.8736 50.9775 40.8566 50.9775Z" fill="black"/>
<path d="M182.36 95.9213V33H229.251V45.5843H195.757V58.1685H222.552V69.8539H195.757V83.3371H229.251V95.9213H182.36Z" fill="black"/>
<path d="M240.405 95.9213V50.0786H252.909V56.3708H253.356C254.13 54.9925 255.231 53.7341 256.66 52.5955C259.935 50.0187 263.597 48.7303 267.646 48.7303C273.303 48.7303 277.679 50.3783 280.776 53.6742C283.932 56.97 285.509 61.764 285.509 68.0562V95.9213H273.005V69.8539C273.005 66.4981 272.172 63.9513 270.504 62.2135C268.897 60.4157 266.604 59.5169 263.627 59.5169C260.65 59.5169 258.119 60.6554 256.035 62.9326C253.951 65.2097 252.909 68.1161 252.909 71.6517V95.9213H240.405Z" fill="black"/>
<path d="M294.026 60.8652V50.0786H299.831V40.191H312.336V50.0786H325.197V60.8652H312.336V85.1348H325.733V95.9213H299.831V60.8652H294.026Z" fill="black"/>
<path d="M339.267 90.618C335.278 86.1236 333.283 80.2509 333.283 73C333.283 65.7491 335.278 59.9064 339.267 55.4719C343.316 50.9775 348.318 48.7303 354.272 48.7303C358.262 48.7303 361.864 49.9288 365.08 52.3258C366.449 53.4644 367.61 54.6629 368.563 55.9213H369.009V50.0786H381.514V95.9213H369.009V90.0787H368.563C367.61 91.3371 366.449 92.5356 365.08 93.6742C361.864 96.0712 358.262 97.2697 354.272 97.2697C348.318 97.2697 343.316 95.0524 339.267 90.618ZM349.36 63.1124C347.276 65.5094 346.234 68.8052 346.234 73C346.234 77.1948 347.276 80.4906 349.36 82.8876C351.444 85.2846 354.124 86.4831 357.398 86.4831C360.852 86.4831 363.651 85.3146 365.794 82.9775C367.938 80.5805 369.009 77.2547 369.009 73C369.009 68.7453 367.938 65.4494 365.794 63.1124C363.651 60.7154 360.852 59.5169 357.398 59.5169C354.124 59.5169 351.444 60.7154 349.36 63.1124Z" fill="black"/>
<path d="M394.018 95.9213V50.0786H406.522V56.3708H406.969C407.743 54.9925 408.844 53.7341 410.273 52.5955C413.548 50.0187 417.21 48.7303 421.259 48.7303C426.916 48.7303 431.293 50.3783 434.389 53.6742C437.545 56.97 439.123 61.764 439.123 68.0562V95.9213H426.618V69.8539C426.618 66.4981 425.785 63.9513 424.117 62.2135C422.51 60.4157 420.217 59.5169 417.24 59.5169C414.263 59.5169 411.732 60.6554 409.648 62.9326C407.564 65.2097 406.522 68.1161 406.522 71.6517V95.9213H394.018Z" fill="black"/>
<path d="M455.052 89.7191C451.003 85.2846 448.979 79.5618 448.979 72.5506C448.979 65.5393 451.003 59.8165 455.052 55.382C459.101 50.9476 464.073 48.7303 469.968 48.7303C473.898 48.7303 477.5 49.9588 480.775 52.4157C482.145 53.5543 483.306 54.7528 484.259 56.0112H484.705V50.0786H497.209V113H455.677V102.213H484.705V89.0899H484.259C483.246 90.5281 482.085 91.7566 480.775 92.7753C477.56 95.1723 473.957 96.3708 469.968 96.3708C464.073 96.3708 459.101 94.1536 455.052 89.7191ZM465.145 63.0225C463.001 65.3596 461.93 68.5356 461.93 72.5506C461.93 76.5655 463.001 79.7416 465.145 82.0787C467.289 84.4157 470.087 85.5843 473.541 85.5843C476.816 85.5843 479.495 84.4157 481.579 82.0787C483.663 79.7416 484.705 76.5655 484.705 72.5506C484.705 68.5356 483.663 65.3596 481.579 63.0225C479.495 60.6854 476.816 59.5169 473.541 59.5169C470.087 59.5169 467.289 60.6854 465.145 63.0225Z" fill="black"/>
<path d="M509.714 95.9213V33H522.218V85.1348H532.489V95.9213H509.714Z" fill="black"/>
<path d="M545.379 90.2584C540.675 85.5243 538.323 79.7715 538.323 73C538.323 66.2285 540.675 60.5056 545.379 55.8315C550.142 51.0974 555.978 48.7303 562.885 48.7303C569.911 48.7303 575.687 51.0674 580.212 55.7416C584.737 60.4157 587 66.1685 587 73V75.6966H551.274C551.75 78.6929 553.09 81.2397 555.293 83.3371C557.496 85.4345 560.027 86.4831 562.885 86.4831C566.041 86.4831 568.75 85.5843 571.012 83.7865C571.906 83.0075 572.62 82.1086 573.156 81.0899H586.553C585.541 84.1461 584.053 86.8427 582.088 89.1798C577.324 94.573 570.923 97.2697 562.885 97.2697C555.978 97.2697 550.142 94.9326 545.379 90.2584ZM551.72 68.0562H573.603C573.126 65.6592 571.906 63.6517 569.941 62.0337C568.035 60.3558 565.683 59.5169 562.885 59.5169C560.086 59.5169 557.704 60.3258 555.739 61.9438C553.774 63.5618 552.435 65.5993 551.72 68.0562Z" fill="black"/>
</svg>
